<?xml version="1.0" encoding="utf-8" ?><svg xmlns="http://www.w3.org/2000/svg" xmlns:xlink="http://www.w3.org/1999/xlink" width="1024" height="1024" viewBox="0 0 1024 1024"><path fill="#F0F4EF" d="M0 0L1024 0L1024 1024L0 1024L0 0Z"/><path fill="#171B37" d="M92.448 453.37C94.206 433.962 97.1303 416.065 112.95 403.217C129.936 389.422 152.136 379.98 162.044 359.642C166.326 350.852 163.474 347.283 174.91 348.168C201.409 350.217 208.745 375.511 202.725 397.918C215.013 406.432 222.569 412.04 231.061 424.405C246.926 425.757 262.935 422.647 253.41 444.928C257.412 452.312 259.154 458.045 262.08 465.489C271.352 489.073 257.773 498.574 235.379 501.345C235.689 508.629 236.91 521.183 238.082 528.449C245.01 529.375 250.72 530.318 256.64 534.355C268.56 542.483 278.947 552.106 284.016 565.98C285.221 569.281 286.507 573.07 288.238 576.129C307.319 603.665 319.869 634.871 336.989 663.641C348.47 661.278 360.215 658.66 371.384 655.077C375.75 653.676 381.214 648.432 386.003 647.207C388.444 646.582 389.434 647.434 391.357 648.769C393.998 646.554 397.451 641.971 399.506 639.079C405.857 630.136 409.741 626.186 418.806 620.375C414.413 614.706 395.791 594.046 401.629 588.151C407.895 586.072 415.434 597.603 418.878 601.946C422.874 606.984 426.784 612.397 430.655 617.556C451.08 617.545 449.09 618.241 458.915 635.931L503.124 597.989C506.347 595.272 517.326 585.659 520.055 583.941C524.176 586.064 539.222 593.033 541.24 596.099C541.259 597.143 541.538 597.684 540.574 598.366C524.151 609.986 506.944 620.244 490.868 632.454C521.754 622.319 527.339 641.839 532.817 665.984C533.186 667.61 539.188 675.98 540.634 678.092L555.261 699.44L607.896 777.008L628.641 807.134C631.451 811.242 636.735 818.489 638.788 822.465C637.61 824.805 636.724 826.612 635.279 828.828C637.483 831.472 641.696 837.268 645.137 838.089C647.331 838.612 650.057 836.944 652.524 837.532C661.205 839.599 670.313 843.69 679.275 843.946C696.303 844.432 705.306 831.014 721.091 848.784C722.449 850.314 723.777 852.04 723.567 854.23C722.707 863.202 664.845 903.627 654.759 910.085C652.232 911.703 647.972 914.679 644.905 914.012C638.81 912.686 632.97 902.069 630.087 897.103C626.265 890.521 622.965 883.628 619.769 876.725C619.031 875.13 619.18 873.454 619.234 871.735C617.707 868.985 607.066 857.737 604.415 855.286C600.937 857.507 596.29 861.042 592.338 861.258C588.374 859.796 562.252 825.962 557.427 820.401C557.445 826.258 558.683 833.904 559.441 839.868L563.155 869.148C563.886 874.906 564.915 880.889 564.795 886.7C564.713 890.68 562.591 891.619 559.415 893.258C560.367 896.664 562.67 905.709 563.994 908.5C569.478 908.787 568.501 907.99 572.17 911.862C577.016 916.976 585.274 928.231 591.178 931.752C602.907 938.746 608.549 934.292 620.975 943.63C650.212 945.496 680.957 947.165 709.652 952.856C714.15 953.748 725.91 955.6 728.016 960.12C728.368 960.874 728.61 961.536 728.365 962.348C727.82 964.153 726.11 965.187 724.553 966.061C712.365 972.903 681.112 975.189 666.183 976.68C585.999 984.687 504.818 985.698 424.28 986.064C341.934 986.437 259.26 985.913 177.045 980.987C153.315 979.565 129.605 977.897 105.996 975.073C94.4514 973.692 82.4404 972.551 71.2881 969.138C68.1146 968.167 62.424 966.29 61.2 962.863C60.8059 961.759 61.0172 960.694 61.6216 959.719C68.8469 948.06 147.518 944.99 164.789 942.941C169.31 913.539 174.523 884.645 180.883 855.584C181.834 851.237 182.651 846.612 183.265 842.212C116.049 793.833 78.0287 676.496 65.2171 597.761C60.7431 570.266 48.6856 489.326 63.8594 467.554C70.3812 458.197 81.9697 455.6 92.448 453.37Z"/><path fill="#F0F4EF" d="M412.357 937.13L415.578 942.534C420.372 950.403 432.735 976.546 444.03 969.295C450.606 965.073 446.824 950.432 445.689 943.888L446.342 942.948C450.548 942.369 465.695 943.159 470.821 943.329L521.543 945.072C521.137 966.408 519.234 970.106 543.064 970.219L592.241 970.34C600.208 970.35 620.776 971.933 627.339 966.678C632.493 962.55 629.596 954.023 626.02 949.072C624.629 947.876 622.293 945.1 620.975 943.63C650.212 945.496 680.957 947.165 709.652 952.856C714.15 953.748 725.91 955.6 728.016 960.12C728.368 960.874 728.61 961.536 728.365 962.348C727.82 964.153 726.11 965.187 724.553 966.061C712.365 972.903 681.112 975.189 666.183 976.68C585.999 984.687 504.818 985.698 424.28 986.064C341.934 986.437 259.26 985.913 177.045 980.987C153.315 979.565 129.605 977.897 105.996 975.073C94.4514 973.692 82.4404 972.551 71.2881 969.138C68.1146 968.167 62.424 966.29 61.2 962.863C60.8059 961.759 61.0172 960.694 61.6216 959.719C68.8469 948.06 147.518 944.99 164.789 942.941C164.699 944.311 164.447 950.243 164.226 951.032C163.473 958.427 162.621 974.604 174.458 971.575C182.732 969.458 190.791 953.137 195.027 946.102L198.1 940.035C200.658 940.822 248.924 938.708 255.014 938.528C307.53 936.977 359.827 936.749 412.357 937.13Z"/><path fill="#3F9EA1" d="M620.975 943.63C650.212 945.496 680.957 947.165 709.652 952.856C714.15 953.748 725.91 955.6 728.016 960.12C728.368 960.874 728.61 961.536 728.365 962.348C727.82 964.153 726.11 965.187 724.553 966.061C712.365 972.903 681.112 975.189 666.183 976.68C585.999 984.687 504.818 985.698 424.28 986.064C341.934 986.437 259.26 985.913 177.045 980.987C153.315 979.565 129.605 977.897 105.996 975.073C94.4514 973.692 82.4404 972.551 71.2881 969.138C68.1146 968.167 62.424 966.29 61.2 962.863C60.8059 961.759 61.0172 960.694 61.6216 959.719C68.8469 948.06 147.518 944.99 164.789 942.941C164.699 944.311 164.447 950.243 164.226 951.032C164.162 949.795 164.267 949.789 163.566 948.802C157.725 946.558 70.2273 956.578 67.6337 961.633C72.1628 966.658 114.58 970.683 123.08 971.386C264.94 983.123 409.306 981.521 551.555 978.144C587.662 977.287 693.284 973.917 722.88 961.224C701.306 954.686 672.911 953.183 650.457 950.947C645.506 950.453 630.493 948.92 626.02 949.072C624.629 947.876 622.293 945.1 620.975 943.63Z"/><path fill="#3F9EA1" d="M412.357 937.13L415.578 942.534L354.179 942.203C321.665 942.309 289.771 942.929 257.271 943.864C236.293 944.468 216.056 944.824 195.027 946.102L198.1 940.035C200.658 940.822 248.924 938.708 255.014 938.528C307.53 936.977 359.827 936.749 412.357 937.13Z"/><path fill="#F0F4EF" d="M231 865.993C240.551 868.344 251.776 871.091 261.581 872.175C297.724 876.168 338.753 871.713 374.289 864.713L412.357 937.13C359.827 936.749 307.53 936.977 255.014 938.528C248.924 938.708 200.658 940.822 198.1 940.035C204.358 927.046 210.581 914.097 216.312 900.862C221.321 889.294 225.847 877.492 231 865.993Z"/><path fill="#F0F4EF" d="M484.665 795.534L485.463 795.465C486.561 802.117 488.429 809.197 489.936 815.833C495.763 841.485 500.836 867.297 506.591 892.958C508.406 901.053 512.564 900.46 519.686 899.231L521.144 898.97C522.203 902.338 524.491 908.943 524.826 912.173L524.398 912.691C523.87 913.343 522.582 914.848 522.541 915.608C522.116 923.486 522.086 932.081 521.606 939.884L521.543 945.072L470.821 943.329C465.695 943.159 450.548 942.369 446.342 942.948L445.689 943.888C445.29 941.88 445.041 939.613 444.77 937.565C443.814 933.706 443.106 929.777 442.287 925.887C436.995 900.745 431.107 875.721 424.555 850.878C447.715 840.606 472.71 829.437 482.384 803.909C483.387 801.263 484.418 798.356 484.665 795.534Z"/><path fill="#3F9EA1" d="M444.77 937.565C470.003 937.663 496.299 939.095 521.606 939.884L521.543 945.072L470.821 943.329C465.695 943.159 450.548 942.369 446.342 942.948L445.689 943.888C445.29 941.88 445.041 939.613 444.77 937.565Z"/><path fill="#F0F4EF" d="M460.234 758.352C464.28 749.872 468.683 742.693 472.463 733.965C475.076 746.653 479.344 769.287 483.052 781.231L482.481 781.424C477.567 769.542 471.023 764.503 460.234 758.352Z"/><path fill="#2B284C" d="M483.052 781.231C484.968 785.757 485.816 790.564 485.463 795.465L484.665 795.534C484.924 789.89 483.977 786.75 482.481 781.424L483.052 781.231Z"/><path fill="#F0F4EF" d="M91.2167 459.633L91.9753 459.617C92.6319 460.439 94.4223 472.185 95.508 475.038C102.161 492.517 111.718 499.226 126.74 507.436C139.608 557.003 147.088 607.902 164.934 655.438C192.853 730.464 271.31 761.853 345.914 765.23C378.664 766.712 414.482 764.641 446.187 773.495C463.757 778.401 474.555 794.526 466.081 812.472C457.569 830.496 437.793 839.773 419.901 846.292C405.925 851.709 390.61 855.181 376 858.378C316.807 871.332 246.366 876.373 193.11 841.987C184.031 836.125 175.45 829.422 167.819 821.762C120.387 774.15 89.9568 687.801 75.9512 623.224C70.0683 596.1 53.1396 493.212 68.0823 470.977C73.3397 463.153 82.611 461.3 91.2167 459.633Z"/><path fill="#1E5C65" d="M317.765 743.374C366.277 716.143 412.284 686.672 459.064 656.703C468.647 650.564 478.516 644.489 488.806 639.635C521.186 624.252 523.775 653.898 528.621 676.943C537.802 720.605 543.021 764.741 549.036 808.864L555.819 860.103C556.812 867.977 558.421 878.403 558.883 886.138C549.606 888.435 522.393 893.48 513.212 893.624C508.161 873.527 504.454 853.35 500.205 833.084L484.896 762.542C483.49 755.952 476.237 719.772 474.053 715.784L473.252 715.799C471.694 717.737 470.368 721.861 469.425 724.32C465.188 735.382 458.653 745.608 453.894 756.333L446.907 753.738C443.981 753.265 438.647 751.839 435.222 751.211C426.96 749.695 419.582 749.156 411.474 748.493C404.026 747.883 394.421 747.734 387.806 747.432C378.079 746.989 336.395 747.143 329.304 744.43C325.525 744.851 321.503 744.051 317.765 743.374Z"/><path fill="#F7F7F5" d="M317.765 743.374C366.277 716.143 412.284 686.672 459.064 656.703C468.647 650.564 478.516 644.489 488.806 639.635C521.186 624.252 523.775 653.898 528.621 676.943C537.802 720.605 543.021 764.741 549.036 808.864L555.819 860.103C556.812 867.977 558.421 878.403 558.883 886.138C549.606 888.435 522.393 893.48 513.212 893.624C508.161 873.527 504.454 853.35 500.205 833.084L484.896 762.542C483.49 755.952 476.237 719.772 474.053 715.784L473.252 715.799C471.694 717.737 470.368 721.861 469.425 724.32C465.188 735.382 458.653 745.608 453.894 756.333L446.907 753.738C454.757 740.854 462.808 728.293 469.846 714.907C470.745 713.198 472.489 710.34 473.976 709.144C475.278 708.966 476.118 708.685 477.271 709.256C482.75 728.201 487.632 751.223 491.795 770.414L508.431 846.645C511.339 860.324 513.761 874.088 516.952 887.696C528.587 886.651 542.075 884.2 553.727 882.247L540.547 792.265C534.959 753.267 531.02 715.105 521.971 676.502C513.557 640.61 514.67 632.154 477.088 653.058C439.543 673.942 405.041 699.405 367.802 720.84C354.802 728.361 342.241 736.801 329.304 744.43C325.525 744.851 321.503 744.051 317.765 743.374Z"/><path fill="#F0F4EF" d="M172.185 582.192C179.206 583.991 185.577 585.61 192.847 586.39C221.332 589.447 249.589 582.696 278.067 582.687C293.791 606.494 298.957 638.618 308.604 665.528C282.561 662.04 267.547 652.107 250.326 632.01C243.456 624.189 237.868 615.568 232.473 606.703C231.167 604.556 229.563 604.155 227.564 605.44C227.247 606.224 226.853 607.361 227.245 608.167C237.819 629.951 259.268 652.809 280.449 663.674C305.975 676.769 342.497 670.171 368.353 661.727C377.493 669.117 384.725 683.34 388.27 694.337C371.868 703.997 355.239 717.452 336.578 723.285C311.486 731.262 272.969 732.729 249.634 720.314C214.588 701.668 190.356 663.114 183.543 624.693C183.27 623.156 182.214 621.633 180.767 620.93C177.567 622.121 178.083 625.938 178.63 628.776C180.343 637.677 182.793 646.698 186.303 655.027L185.479 655.624C184.814 653.682 183.495 651.177 182.62 649.214C175.092 632.311 169.905 614.246 165.386 596.304C167.327 591.293 169.516 586.841 172.185 582.192Z"/><path fill="#6EBDB8" d="M169.893 353.721C172.133 353.692 174.529 353.939 176.776 354.11C186.184 355.943 192.149 359.287 196.076 368.679C202.045 382.955 199.063 398.988 190.787 411.699C182.06 424.928 183.389 439.184 188.754 453.479C181.726 460.532 170.854 462.132 171.083 474.48C171.256 483.801 177.193 489.258 185.883 491.238L186.269 491.322C186.428 495.071 186.599 498.712 186.586 502.464C174.99 511.058 165.051 508.927 151.105 507.479C141.459 506.478 120.259 500.094 113.732 492.388C100.895 481.052 97.0891 463.963 98.7022 447.583C101.043 423.811 107.875 411.903 127.738 399.019C145.154 387.722 164.543 375.111 169.893 353.721Z"/><path fill="#F7F7F5" d="M169.893 353.721C172.133 353.692 174.529 353.939 176.776 354.11C171.15 366.801 169.225 371.746 159.558 382.162C148.657 393.908 134.881 399.671 123.684 409.548C105.189 425.863 99.7125 457.09 107.854 479.893C109.47 484.419 112.326 488.723 113.732 492.388C100.895 481.052 97.0891 463.963 98.7022 447.583C101.043 423.811 107.875 411.903 127.738 399.019C145.154 387.722 164.543 375.111 169.893 353.721Z"/><path fill="#F7F7F5" d="M536.01 682.846C537.719 684.142 629.138 818.518 631.715 823.28C627.682 829.25 621.769 834.695 616.299 839.312C609.908 844.349 600.564 850.42 593.393 854.248C580.144 841.215 567.972 821.464 555.188 807.643C549.548 767.607 545.152 722.106 536.01 682.846Z"/><path fill="#1E5C65" d="M545.069 704.408C548.386 707.989 553.993 717.146 556.796 721.536C562.18 729.965 567.526 738.19 573.086 746.52L610.706 802.097C615.217 808.837 620.198 815.645 624.42 822.501C620.993 826.364 615.126 831.56 611.209 835.103C605.999 839.841 599.999 844.526 594.483 848.985C583.486 834.112 570.591 819.291 560.819 803.552C560.296 802.71 559.56 798.849 559.413 797.698C556.331 773.687 552.604 749.778 548.579 725.91C547.368 718.739 545.97 711.632 545.069 704.408Z"/><path fill="#F7F7F5" d="M234.979 432.121C248.527 431.275 255.498 429.676 247.687 445.735C252.623 455.204 258.242 470.114 259.745 480.72C254.781 494.625 239.784 495.948 226.985 495.396C223.44 495.243 218.771 492.607 216.021 495.495C216.1 501.246 225.215 500.924 229.418 501.332C230.911 516.318 232.674 529.745 235.397 544.641C226.876 540.941 219.239 537.671 210.424 534.775C204.382 533.359 199.68 532.647 193.604 531.83C193.37 526.287 192.421 487.971 190.432 486.304C188.497 484.683 182.736 485.169 178.796 480.845C177.224 479.12 176.398 477.021 176.573 474.678C176.804 471.571 178.55 467.728 181.05 465.8C187.858 460.551 192.858 471.017 198.688 470.911C200.123 470.884 200.581 470.248 201.523 469.323C202.526 465.468 196.982 460.504 196.609 456.249C198.781 452.519 214.6 440.755 218.789 437.788C228.042 452.803 242.528 449.626 234.979 432.121Z"/><path fill="#171B37" d="M248.409 464.869C249.448 465.034 249.085 464.958 250.043 465.535C251.287 469.92 245.643 473.691 241.915 474.563C236.77 475.768 233.039 474.247 228.761 471.569C227.483 470.404 226.458 469.372 226.658 467.596C229.78 465.875 235.552 469.539 239.267 469.969C241.851 470.269 246.195 466.485 248.409 464.869Z"/><path fill="#F7F7F5" d="M133.112 509.236C135.182 509.713 139.134 511.141 141.299 511.859C152.576 563.518 161.212 626.833 188.651 671.955C203.648 696.616 226.786 715.848 252.647 728.456C258.178 731.153 264.1 733.292 269.809 735.59C282.556 740.719 295.27 745.044 308.758 747.796C321.644 750.426 334.922 751.658 348.042 752.328C377.75 753.843 413.339 751.641 441.928 758.749C453.523 761.632 467.202 766.421 473.629 777.267C478.75 785.911 478.545 794.967 476.073 804.39C475.745 805.068 475.992 804.778 475.28 805.213C475.438 798.124 475.177 789.952 470.753 783.893C458.003 765.944 427.622 761.906 406.753 761.442C341.282 759.986 285.638 761.028 227.961 724.529C165.1 684.749 159.093 617.537 143.002 551.145C139.645 537.294 135.975 523.187 133.112 509.236Z"/><path fill="#F0F4EF" d="M188.8 846.316C202.164 854.213 211.03 858.343 225.389 864.051C224.085 867.149 222.866 870.286 221.639 873.416C211.719 898.709 200.099 923.253 187.543 947.339C184.976 952.053 177.447 965.122 171.977 966.163C171.425 965.938 171.01 965.899 170.667 965.369C164.759 956.257 185.026 862.945 188.8 846.316Z"/><path fill="#F0F4EF" d="M418.402 853.079C422.801 858.424 444.033 958.828 441.419 963.712C440.441 964.289 439.635 964.988 438.358 964.353C433.373 961.872 426.609 949.223 423.896 944.765C407.605 917.567 394.475 891.465 380.011 863.351C393.133 860.418 405.608 857.171 418.402 853.079Z"/><path fill="#F7F7F5" d="M558.283 912.017L558.832 912.193C557.05 914.361 552.55 918.796 551.421 920.877C548.04 927.113 563.563 942.391 567.855 945.052C571.061 947.04 588.17 940.468 591.917 939.251C605.396 945.512 613.281 939.619 622.2 954.805C616.956 955.125 610.751 954.942 605.43 954.912L527.054 954.848C526.929 942.968 527.348 929.941 527.461 917.952C539.566 918.623 547.142 916.245 558.283 912.017Z"/><path fill="#F7F7F5" d="M182.876 554.7C186.244 554.097 195.477 554.327 198.956 554.552C225.268 556.249 246.591 564.484 269.608 576.281C265.199 576.435 261.374 576.864 257.01 577.349C233.72 580.103 212.234 582.517 188.776 579.811C167.743 577.384 170.272 574.656 176.136 555.699C178.274 555.215 180.683 554.979 182.876 554.7Z"/><path fill="#F7F7F5" d="M644.837 841.38C645.265 845.294 641.464 851.392 643.225 856.53C644.631 860.632 664.164 873.938 666.961 870.14C674.853 859.422 681.061 849.624 695.329 846.725C702.479 845.272 704.578 844.984 711.776 847.239C703.552 854.709 694.607 861.293 685.75 867.99C669.835 879.377 656.585 890.356 639.589 901.258C635.35 894.73 627.442 879.914 624.434 872.883C626.982 870.047 637.14 860.885 638.058 858.596C640.626 852.194 641.193 848.251 644.837 841.38Z"/><path fill="#F7F7F5" d="M430.155 623.591C434.918 623.204 439.293 623.433 444.05 623.701C446.872 626.457 453.752 636.379 453.459 639.979L452.701 640.513C448.917 635.193 444.143 626.93 434.077 634.904C432.119 636.456 439.087 648.334 440.615 650.79C435.324 655.924 430.528 660.934 425.457 666.292C422.616 669.264 414.857 674.931 411.095 677.908C406.264 666.451 403.878 662.761 396.673 652.923C406.531 639.159 413.048 627.399 430.155 623.591Z"/><path fill="#F7F7F5" d="M186.042 510.483C186.541 510.545 186.215 510.463 186.906 511.005C187.61 515.504 187.781 526.415 188.006 531.458C173.091 531.765 164.163 537.886 167.793 554.019L158.354 565.123C157.686 562.544 157.098 559.528 156.524 556.89C153.707 541.814 151.23 527.281 146.55 512.637C161.413 515.22 172.032 516.509 186.042 510.483Z"/><path fill="#F7F7F5" d="M200.919 403.954C210.608 409.925 214.487 413.52 222.689 421.548C216.208 423.264 214.447 424.727 216.807 431.304C212.577 434.513 208.17 438.258 204.032 441.64C201.379 444.016 196.695 447.455 193.763 449.76C190.229 439.268 187.866 428.622 193.577 418.355C196.031 413.943 199.204 408.624 200.919 403.954Z"/><path fill="#171B37" d="M210.92 415.2C212.534 415.958 212.553 416.387 213.071 417.612C212.483 420.967 210.609 426.517 209.143 429.588C208.464 429.269 207.142 428.715 206.677 428.176C203.316 424.28 208.629 417.423 210.92 415.2Z"/><path fill="#F7F7F5" d="M182.779 537.14C185.109 537.011 188.114 537.129 190.389 537.181C212.225 537.683 262.638 559.603 276.705 575.168C273.799 573.595 270.411 571.428 267.536 569.689C244.777 557.647 223.656 550.174 197.508 548.73C189.419 548.284 181.853 549.48 173.835 549.778C171.929 548.402 172.562 549.253 171.658 547.296C171.715 542.076 178.009 538.003 182.779 537.14Z"/><path fill="#F7F7F5" d="M520.402 590.828C522.335 591.52 529.828 595.916 532.047 597.162C501.182 616.435 474.307 637.466 444.503 657.904C441.502 660.109 438.618 662.319 435.4 664.203C443.602 655.946 456.296 645.773 465.45 638.046L498.915 609.287C506.505 602.879 513.283 597.834 520.402 590.828Z"/><path fill="#F7F7F5" d="M283.413 579.358C286.096 580.784 294.647 596.484 296.588 600.004C304.223 613.855 310.971 628.298 318.26 642.348C320.268 646.219 329.425 661.846 329.331 664.324L315.167 665.531C306.563 642.953 302.293 619.188 291.774 597.354C290.003 593.679 283.472 582.14 283.413 579.358Z"/><path fill="#F7F7F5" d="M386.442 653.413C394.466 653.858 403.458 675.582 406.341 682.101C402.901 684.831 398.769 687.577 395.134 690.112L394.161 690.265C392.864 688.633 389.852 680.91 388.293 677.991C384.317 670.542 380.611 665.822 375.479 659.305C378.783 657.264 382.949 655.229 386.442 653.413Z"/><path fill="#F7F7F5" d="M631.877 833.337C632.96 834.139 638.395 839.552 639.734 840.822C637.776 844.942 635.043 851.302 634.47 855.803C631.86 858.332 625.329 865.296 621.989 866.176C621.406 866.329 620.599 865.245 620.019 864.672C616.349 860.281 613.065 856.252 609.013 852.192C619.184 845.239 622.817 842.035 631.877 833.337Z"/><path fill="#F7F7F5" d="M552.796 894.183C553.605 893.993 553.14 894.002 554.176 894.401C555.625 897.922 556.859 903.21 557.865 907.005C548.892 910.688 541.742 912.713 532.125 913.041C530.758 911.553 527.685 900.852 526.866 898.255C535.45 897.038 544.217 895.546 552.796 894.183Z"/><path fill="#F7F7F5" d="M527.123 960.579C535.633 960.164 623.182 960.646 624.225 961.546L623.772 962.501C621.091 964.192 618.95 964.449 615.807 964.475C606.674 964.55 597.528 964.478 588.394 964.449L531.544 964.41C529.308 962.907 528.857 962.615 527.123 960.579Z"/><path fill="#F7F7F5" d="M715.536 851.85C716.955 852.361 716.368 851.955 717.343 853.138C715.399 860.733 656.29 901.921 646.232 908.283C645.426 907.812 645.044 907.488 644.3 906.923L644.282 906.054C647.063 903.108 662.269 893.313 667.056 889.778C683.928 877.321 699.432 865.316 715.536 851.85Z"/><path fill="#F7F7F5" d="M239.569 534.356C257.303 537.533 262.162 546.549 269.035 562.116C265.94 560.509 261.167 557.215 257.843 555.314C251.721 551.813 247.395 549.778 240.989 547.09C240.572 542.807 240.089 538.628 239.569 534.356Z"/><path fill="#F7F7F5" d="M649.753 842.515C652.973 843.295 656.185 844.141 659.394 844.969C657.084 851.816 655.818 855.048 657.3 862.216C654.06 860.039 650.765 857.934 647.483 855.819C647.38 850.733 647.801 847.26 649.753 842.515Z"/><path fill="#F7F7F5" d="M322.796 732.677L323.616 732.678C322.898 733.851 310.918 740.198 308.883 741.326C302.3 740.015 296.777 738.655 290.302 736.909C286.942 736.078 285.84 735.681 282.677 734.317C297.516 735.625 308.121 735.01 322.796 732.677Z"/><path fill="#F7F7F5" d="M573.344 921.356C575.004 922.611 577.011 925.256 578.405 926.94C572.939 933.31 573.738 933.302 570.54 940.553L569.804 940.619C567.095 937.914 565.686 936.457 563.39 933.434C565.8 928.113 569.053 925.09 573.344 921.356Z"/><path fill="#F7F7F5" d="M663.993 846.364C665.943 846.938 668.417 847.482 670.43 847.986C666.992 855.663 670.34 855.466 665.463 863.818C664.574 865.2 664.426 865.504 662.967 865.502C659.434 861.635 661.889 850.669 663.993 846.364Z"/><path fill="#F7F7F5" d="M566.495 913.424C568.3 914.71 569.423 916.48 570.78 918.266C564.94 922.128 563.406 923.966 560.138 930.167C557.999 928.309 556.908 926.016 555.715 923.529C558.728 918.3 561.603 916.538 566.495 913.424Z"/><path fill="#F7F7F5" d="M167.834 562.402C167.969 564.111 166.899 567.083 166.924 569.127C167.007 576.046 165.801 579.569 163.202 585.788L162.666 585.397C161.703 580.725 160.849 576.716 160.298 571.958C162.854 569.013 165.432 565.517 167.834 562.402Z"/><path fill="#F7F7F5" d="M226.571 432.947L228.98 433.054C232.697 435.248 235.019 439.963 230.737 443.021C227.609 441.493 223.735 439.824 223.798 435.822C224.362 434.16 225.086 433.921 226.571 432.947Z"/><path fill="#F7F7F5" d="M440.091 638.041C444.251 637.842 447.75 640.62 448.19 644.786L447.154 645.969L445.28 647.143L444.52 646.952C443.384 644.655 440.557 639.879 440.091 638.041Z"/><path fill="#F7F7F5" d="M581.42 930.788C582.894 931.665 585.299 934.02 586.66 935.266L582.182 936.654C580.559 937.258 579.214 938.049 577.656 937.577L577.388 936.683C578.223 934.4 579.862 932.706 581.42 930.788Z"/><path fill="#535972" d="M186.303 655.027C189.915 661.98 193.399 668.734 197.771 675.254C198.985 677.065 200.273 679.007 201.022 681.042L199.976 680.508C199.715 679.63 196.959 676.306 196.128 674.752C192.591 668.138 188.468 662.636 185.479 655.624L186.303 655.027Z"/><path fill="#F7F7F5" d="M406.984 596.29C410.552 598.222 422.175 614.691 424.315 618.657C421.898 617.305 409.322 599.653 406.984 596.29Z"/><path fill="#F7F7F5" d="M270.874 554.396C274.876 558.282 279.001 565.507 279.624 571.136C276.876 569.038 272.491 558.047 270.874 554.396Z"/><path fill="#171B37" d="M362.377 50.565L741.618 50.5703C744.966 50.5868 747.664 50.048 749.957 52.3596C750.415 57.6636 750.155 64.5744 750.137 70.0747L750.219 97.1865L750.319 196.505L750.474 497.294C750.484 507.449 751.574 565.38 749.77 569.919C748.404 570.948 747.841 570.786 746.125 570.801C715.768 570.103 683.094 570.686 652.587 570.652L473.497 570.462L402.148 570.43C389.49 570.419 376.784 570.551 364.139 570.18C359.936 570.056 357.577 569.569 357.525 564.691C357.394 552.476 357.432 540.253 357.428 528.036L357.408 457.985L357.312 150.879L357.128 85.4651C357.092 76.4105 356.717 64.4066 357.536 55.352C357.738 53.1175 360.556 51.5819 362.377 50.565Z"/><path fill="#F0F4EF" d="M363.043 56.5421C377.496 56.2407 393.21 56.5571 407.769 56.5448L503.421 56.5535L744.523 56.5445L744.624 422.426L744.549 522.705L744.711 548.523C744.754 552.582 744.971 561.462 744.375 565.255L363.09 564.424L363.043 56.5421Z"/><path fill="#171B37" d="M385.13 74.1567C393.129 73.8633 402.338 74.1164 410.474 74.1215L456.915 74.0885L607.359 74.0811L684.342 74.0983C693.885 74.0985 717.046 73.5526 725.64 74.9076C726.657 76.7501 726.019 97.217 726.01 101.049L725.79 160.63L725.585 444.428L725.588 520.85C725.555 528.353 725.763 537.262 725.488 544.788C725.434 546.246 724.373 546.767 723.396 547.448L487.68 547.106L419.677 547.123C408.385 547.169 397.043 547.577 385.781 546.986C380.811 546.725 381.613 543.036 381.575 538.779L381.531 210.568L381.555 113.328C381.583 102.908 381.21 87.1362 382.287 76.446C382.395 75.3734 384.104 74.659 385.13 74.1567Z"/><path fill="#F0F4EF" d="M670.913 197.149C672.783 197.168 674.719 197.216 676.582 197.189C688.91 196.965 707.782 196.678 720.039 197.233L719.987 368.269L536.298 368.503L536.475 321.825L536.491 313.562L536.122 197.25C545.756 196.905 556.89 197.144 566.622 197.11L631.526 197.046L637.132 197.025C648.367 197.042 659.685 196.987 670.913 197.149Z"/><path fill="#F0F4EF" d="M536.122 197.25C545.756 196.905 556.89 197.144 566.622 197.11L631.526 197.046C626.211 202.717 621.435 208.857 616.597 214.933C596.22 240.524 575.986 266.277 554.847 291.246C548.699 298.509 542.881 306.589 536.491 313.562L536.122 197.25Z"/><path fill="#3F9EA1" d="M631.526 197.046L637.132 197.025C633.023 201.63 628.971 207.171 625.105 212.083L605.117 237.348C584.872 262.935 563.744 287.929 543.355 313.404C541.104 316.217 538.91 319.181 536.475 321.825L536.491 313.562C542.881 306.589 548.699 298.509 554.847 291.246C575.986 266.277 596.22 240.524 616.597 214.933C621.435 208.857 626.211 202.717 631.526 197.046Z"/><path fill="#3F9EA1" d="M670.913 197.149C672.783 197.168 674.719 197.216 676.582 197.189C669.252 207.16 660.942 217.111 653.154 226.787L620.184 267.651L594.965 298.386C592.721 301.114 585.354 311.469 582.797 311.875C581.457 311.31 581.553 311.178 580.731 309.921C580.886 307.112 591.003 295.642 593.307 292.811L615.793 265.246L670.913 197.149Z"/><path fill="#6EBDB8" d="M536.001 374.225C545.828 373.873 557.044 374.076 567.005 374.06L625.792 374.059L669.601 374.098C677.854 374.11 687.732 373.887 695.846 374.418C703.88 374.621 711.991 374.583 720.035 374.601C719.388 429.998 720.084 485.719 719.916 541.145C663.095 540.752 605.778 541.59 549.044 540.825C546.413 541.166 538.799 540.992 535.802 540.998L536.001 374.225Z"/><path fill="#F0F4EF" d="M536.001 374.225C545.828 373.873 557.044 374.076 567.005 374.06L625.792 374.059L669.601 374.098C677.854 374.11 687.732 373.887 695.846 374.418L596.59 486.595L567.641 519.94C562.705 525.675 554.357 535.765 549.044 540.825C546.413 541.166 538.799 540.992 535.802 540.998L536.001 374.225Z"/><path fill="#F0F4EF" d="M387.636 197.021L530.786 197.115C531.254 229.317 530.139 261.712 530.859 293.945C531.057 302.842 531.133 312.658 530.676 321.516C530.657 323.605 530.738 327.259 530.526 329.212L530.484 368.442L430.5 368.549C416.464 368.516 401.682 368.7 387.693 368.259C387.375 348.892 387.801 328.594 387.793 309.13L387.636 197.021Z"/><path fill="#3F9EA1" d="M530.676 321.516C530.657 323.605 530.738 327.259 530.526 329.212C523.301 337.157 516.911 347.01 509.723 355.112C507.595 357.51 501.894 365.945 498.817 365.551C497.159 364.01 497.463 364.87 497.236 363.127C499.043 359.641 509.095 348.031 512.136 344.315C518.216 336.884 524.478 328.768 530.676 321.516Z"/><path fill="#3F9EA1" d="M460.192 209.815C461.631 209.959 461.139 209.87 462.503 210.485C464.603 213.415 463.677 231.95 463.907 237.539C460.364 241.87 451.452 250.293 447.091 254.586C439.221 262.334 430.435 271.433 422.295 278.76C417.596 271.293 412.584 262.005 408.133 254.245C405.089 249.332 401.774 244.266 399.349 239.049C401.42 235.849 405.761 230.011 410.009 230.896C413.196 232.849 419.653 247.516 422.011 252.03C430.317 241.454 450.121 218.949 460.192 209.815Z"/><path fill="#6EBDB8" d="M420.175 258.436C420.896 258.625 421.51 259.005 422.218 258.648C422.388 258.562 455.169 221.717 459.082 217.485L459.06 236.176L435.381 259.892C431.944 263.4 427.371 268.499 424.013 271.678C422.864 269.851 418.488 262.459 417.687 260.45L420.175 258.436Z"/><path fill="#F0F4EF" d="M417.687 260.45C416.007 257.587 406.213 241.626 406.157 239.741C406.805 238.082 406.246 238.625 407.529 237.753C409.772 238.467 417.854 254.576 420.175 258.436L417.687 260.45Z"/><path fill="#3F9EA1" d="M460.831 282.705C461.602 283.086 462.005 283.464 462.702 283.987C464.257 287.124 463.501 305.527 463.474 310.172C460.365 314.362 452.737 321.167 448.874 324.996C440.014 333.777 430.961 342.305 422.557 351.554C417.977 344.801 411.825 333.598 407.429 326.25C399.945 313.861 395.653 311.514 409.426 302.566C412.602 305.779 419.933 319.642 422.589 324.339C431.155 315.424 439.564 304.935 448.159 295.884C452.527 291.284 455.91 286.942 460.831 282.705Z"/><defs><linearGradient id="gradient_0" gradientUnits="userSpaceOnUse" x1="448.46643" y1="322.47253" x2="413.92203" y2="300.91037"><stop offset="0" stop-color="#A6DBD3"/><stop offset="1" stop-color="#EDF2ED"/></linearGradient></defs><path fill="url(#gradient_0)" d="M458.491 291.49C459.426 292.651 458.325 305.022 458.883 308.804C448.114 319.33 433.693 333.462 423.738 344.532L410.316 320.317C408.991 318.144 406.595 314.61 406.027 312.339C406.926 311.043 407.254 310.994 408.6 310.186C410.572 312.619 418.844 327.988 421.487 332.159C423.174 330.688 424.623 328.972 426.124 327.316C436.934 315.393 447.522 303.269 458.491 291.49Z"/><path fill="#F0F4EF" d="M493.19 374.25L530.479 374.168L530.373 541.017L425.358 541.065L387.663 541.147L387.719 374.427C422.133 373.749 458.567 374.307 493.19 374.25Z"/><path fill="#3F9EA1" d="M460.61 380.768C461.231 381.169 462.004 381.771 462.619 382.219C464.234 385.226 463.534 404.811 463.517 409.58C461.405 412.047 458.861 414.373 456.499 416.617C445.041 427.498 433.943 438.596 423.134 450.123C417.936 442.806 412.699 433.378 408.069 425.531C405.219 420.777 402.272 416.085 399.896 411.08C402.036 407.919 405.711 402.508 409.947 403.021C413.797 404.937 415.228 410.539 417.354 414.198C419.078 417.165 420.616 419.802 422.489 422.708C434.668 409.159 447.872 393.395 460.61 380.768Z"/><defs><linearGradient id="gradient_1" gradientUnits="userSpaceOnUse" x1="446.48529" y1="420.82083" x2="418.10037" y2="398.19907"><stop offset="0" stop-color="#A7DDD6"/><stop offset="1" stop-color="#ECF6EF"/></linearGradient></defs><path fill="url(#gradient_1)" d="M458.448 390.017C459.371 391.726 458.893 404.947 458.852 407.753C451.919 414.637 445.213 421.465 438.452 428.507C434.166 432.971 428.873 438.896 424.232 442.804C420.169 437.011 414.537 426.307 410.826 419.814C409.559 417.757 406.763 413.734 406.508 411.637C407.185 410.51 407.135 410.591 408.316 409.994C412.199 411.742 417.772 428.146 421.738 429.525C424.048 428.852 453.807 394.791 458.448 390.017Z"/><path fill="#3F9EA1" d="M460.645 452.769C461.402 453.141 461.991 453.541 462.707 453.986C464.372 456.853 463.76 475.476 463.755 480.284C458.861 486.366 449.386 494.799 443.638 500.637C437.315 507.057 430.236 515.065 423.702 520.901C418.519 512.791 413.712 505.119 408.818 496.807C402.538 485.829 396.07 482.704 409.417 473.432C413.185 477.345 419.804 489.989 422.681 495.172C432.651 483.57 449.827 462.783 460.645 452.769Z"/><defs><linearGradient id="gradient_2" gradientUnits="userSpaceOnUse" x1="450.36618" y1="492.34967" x2="413.05383" y2="472.50006"><stop offset="0" stop-color="#A9DCD6"/><stop offset="1" stop-color="#E8F6EF"/></linearGradient></defs><path fill="url(#gradient_2)" d="M458.402 461.877C459.719 463.747 459.124 475.802 459.087 478.88C449.826 489.215 435.06 504.226 425.042 514.157C420.418 507.599 414.671 497.102 410.499 489.953C409.437 488.209 407.025 484.632 406.658 482.839L407.503 481.664L408.527 481.736C412.527 484.907 417.783 497.235 421.402 502.588L421.785 503.147C432.942 489.713 446.451 474.602 458.402 461.877Z"/><path fill="#F0F4EF" d="M536.124 79.9882L720.487 80.0412C720.483 95.7562 720.141 111.368 720.209 127.163C720.539 133.739 720.945 160.632 720.093 166.652L719.994 191.323L619.898 191.375C603.641 191.332 586.812 191.559 570.603 191.213L565.504 191.084L536.164 191.132C535.654 154.557 536.003 116.625 536.124 79.9882Z"/><path fill="#F0F4EF" d="M536.124 79.9882L720.487 80.0412C720.483 95.7562 720.141 111.368 720.209 127.163C712.603 128.698 709.24 130.141 704.419 136.338C703.229 132.216 702.372 129.149 700.345 125.37C683.893 94.711 639.413 96.5913 623.662 126.897C621.898 130.29 620.57 133.724 619.465 137.394C600.017 117.285 574 129.722 573.919 157.313C563.449 157.989 558.337 167.356 559.192 177.175C559.691 182.902 562.041 186.741 565.504 191.084L536.164 191.132C535.654 154.557 536.003 116.625 536.124 79.9882Z"/><path fill="#3F9EA1" d="M619.465 137.394C620.57 133.724 621.898 130.29 623.662 126.897C639.413 96.5913 683.893 94.711 700.345 125.37C702.372 129.149 703.229 132.216 704.419 136.338C709.24 130.141 712.603 128.698 720.209 127.163C720.539 133.739 720.945 160.632 720.093 166.652C719.871 155.18 720.063 143.369 720.118 131.872C704.293 135.545 707.779 148.113 702.116 150.155C699.446 147.923 700.951 141.201 700.09 137.776C689.726 96.5368 631.498 99.2323 623.957 140.644C623.566 142.79 623.407 144.969 622.363 146.92C620.9 147.747 621.686 147.559 619.892 147.335C617.749 145.559 616.809 142.351 615.151 140.145C602.985 123.957 576.482 135.084 579.636 154.998C579.989 157.228 580.651 160.769 580.011 162.85L579.269 163.361C571.277 161.46 566.205 162.021 564.412 171.476C562.923 179.332 566.338 184.998 570.603 191.213L565.504 191.084C562.041 186.741 559.691 182.902 559.192 177.175C558.337 167.356 563.449 157.989 573.919 157.313C574 129.722 600.017 117.285 619.465 137.394Z"/><path fill="#F0F4EF" d="M388.772 80.2414L530.601 79.8968C530.793 86.0621 531.455 188.483 530.469 191.02L529.506 191.315L387.819 191.284C388.153 157.871 387.532 124.407 387.746 90.9875C387.767 87.6931 387.594 84.0431 387.911 80.7825L388.772 80.2414Z"/><path fill="#3F9EA1" d="M459.563 113.892C461.927 114.094 460.976 113.652 462.656 114.914C464.35 118.364 463.601 135.571 463.588 140.531C459.592 145.259 451.102 153.29 446.318 158.025C438.673 165.591 429.691 175.296 421.812 182.244C418.163 177.086 411.035 162.544 407.717 156.271C405.036 151.145 402.114 145.943 400.116 140.536C401.964 138.079 407.456 131.983 410.558 132.278C413.957 135.362 420.436 149.482 422.908 154.404C432.416 142.039 448.486 124.92 459.563 113.892Z"/><path fill="#6EBDB8" d="M420.367 160.473C421.027 160.799 421.742 161.44 422.484 161.158C423.345 160.83 454.583 125.978 458.653 121.415C458.67 126.741 458.85 133.362 458.622 138.574C448.46 150.195 433.986 163.941 423.024 175.51C420.733 171.036 418.687 166.499 416.592 161.933C418.982 161.472 418.984 161.885 420.367 160.473Z"/><path fill="#F0F4EF" d="M416.592 161.933C415.105 158.406 404.19 141.182 408.287 139.496C411.212 141.309 418.251 156.429 420.367 160.473C418.984 161.885 418.982 161.472 416.592 161.933Z"/><path fill="#171B37" d="M868.446 445.079C871.709 445.068 875.285 445.513 877.297 448.415C881.894 455.047 884.168 463.945 886.22 471.693C896.701 511.273 900.958 552.454 903.45 593.236C904.183 605.382 904.507 618.638 903.591 630.733C902.823 640.889 897.284 651.439 892.987 660.817C883.77 680.935 871.691 706.486 854.174 720.726C858.395 740.614 862.344 760.951 864.488 781.168C865.803 793.567 866.539 806.036 867.264 818.483L877.751 818.507C878.752 803.895 881.422 788.344 884.733 774.096C881.434 771.88 878.069 768.378 876.94 764.526C859.083 703.599 901.519 640.95 956.543 616.96C964.852 613.337 987.801 606.218 990.243 618.791C994.965 643.108 981.455 674.871 971.276 696.918C955.421 728.377 924.401 762.815 890.656 774.046C888.587 781.205 883.167 811.866 883.625 818.488L915.14 818.404C919.157 818.395 928.43 818.126 931.856 818.808C933.766 822.519 931.2 839.179 930.705 843.721L925.45 888.755L919.173 946.574C918.685 950.895 919.147 969.76 913.061 970.696C912.004 970.858 906.381 970.576 904.764 970.57L881.45 970.555L839.569 970.584C832.616 970.592 825.299 971.041 818.389 970.489C816.883 970.368 816.08 970.328 815.126 969.048C813.309 966.611 799.083 829.562 800.823 820.637C804.061 817.546 814.176 818.482 818.754 818.506L842.656 818.577C842.14 805.581 835.57 780.487 831.938 767.925C794.234 774.076 773.231 749.058 760.15 717.333C754.424 703.448 744.612 675.798 748.458 661.52C752.221 647.546 786.111 664.318 793.538 667.875C793.331 601.853 805.402 532.436 838.631 474.169C844.694 463.537 855.863 448.223 868.446 445.079Z"/><path fill="#6EBDB8" d="M862.493 859.572L923.061 859.581C919.475 886.106 917.574 913.269 914.225 939.858C913.276 947.391 912.671 957.554 911.519 964.619L862.769 964.635L819.662 964.875C816.188 930.052 811.789 894.514 808.95 859.696L862.493 859.572Z"/><path fill="#F0F4EF" d="M808.95 859.696L862.493 859.572C862.955 872.589 862.74 886.501 862.755 899.586L862.769 964.635L819.662 964.875C816.188 930.052 811.789 894.514 808.95 859.696Z"/><path fill="#6EBDB8" d="M814.492 548.405C817.191 550.894 820.344 554.659 822.843 557.476C827.238 562.933 830.996 567.754 834.966 573.518C838.496 578.641 842.616 585.438 846.578 590.036C844.135 622.092 842.318 653.391 844.187 685.566C844.775 695.673 845.422 708.128 847.276 718.137L840.135 720.474C835.41 701.309 825.465 690.547 810.554 678.333C806.617 675.591 803.752 673.592 799.503 671.279C799.348 628.105 802.798 590.252 814.492 548.405Z"/><path fill="#F7F7F5" d="M814.492 548.405C817.191 550.894 820.344 554.659 822.843 557.476L822.745 558.263C821.981 564.144 820.402 571.59 819.006 577.4C810.954 610.908 810.405 644.099 810.554 678.333C806.617 675.591 803.752 673.592 799.503 671.279C799.348 628.105 802.798 590.252 814.492 548.405Z"/><path fill="#6EBDB8" d="M888.524 514.988C891.24 518.158 895.71 565.425 896.251 573.664C897.364 590.625 898.899 613.33 897.76 630.285C881.556 636.797 869.252 641.6 855.701 653.125C853.584 654.984 851.827 656.753 849.841 658.745C849.685 622.048 852.628 584.17 857.896 547.818C859.678 535.52 878.714 521.65 888.524 514.988Z"/><path fill="#6EBDB8" d="M862.497 824.504L927.216 824.427L925.53 837.527C925.386 839.221 925.268 841.189 925.006 842.837L924.098 851.484L862.474 851.501L808.485 851.489C808.095 848.622 807.845 845.364 807.556 842.453L807.192 838.175L805.817 824.489C824.552 824.233 843.729 824.47 862.497 824.504Z"/><path fill="#F0F4EF" d="M862.497 824.504L927.216 824.427L925.53 837.527C925.386 839.221 925.268 841.189 925.006 842.837C906.978 842.943 879.763 843.559 862.362 842.395C862.324 840.858 862.337 839.427 862.361 837.889C862.765 834.636 862.739 827.878 862.497 824.504Z"/><path fill="#3F9EA1" d="M862.361 837.889C866.265 837.333 878.983 837.565 883.245 837.56L925.53 837.527C925.386 839.221 925.268 841.189 925.006 842.837C906.978 842.943 879.763 843.559 862.362 842.395C862.324 840.858 862.337 839.427 862.361 837.889Z"/><path fill="#F7F7F5" d="M805.817 824.489C824.552 824.233 843.729 824.47 862.497 824.504C862.739 827.878 862.765 834.636 862.361 837.889C862.337 839.427 862.324 840.858 862.362 842.395C854.467 841.533 840.894 842.392 832.508 842.085C829.118 841.961 812.187 841.96 809.357 842.424L807.556 842.453L807.192 838.175L805.817 824.489Z"/><path fill="#3F9EA1" d="M807.192 838.175C825.312 837.81 844.52 838.566 862.361 837.889C862.337 839.427 862.324 840.858 862.362 842.395C854.467 841.533 840.894 842.392 832.508 842.085C829.118 841.961 812.187 841.96 809.357 842.424L807.556 842.453L807.192 838.175Z"/><path fill="#F7F7F5" d="M809.357 842.424C826.398 843.049 845.243 842.48 862.447 842.577L862.474 851.501L808.485 851.489C808.095 848.622 807.845 845.364 807.556 842.453L809.357 842.424Z"/><path fill="#6EBDB8" d="M816.655 541.968C823.397 517.034 834.168 491.285 848.726 469.894C851.635 465.62 863.296 449.937 869.028 451.855C869.451 453.639 869.018 453.774 868.33 455.858C862.854 477.597 859.232 499.59 855.692 521.696C852.499 541.632 848.931 561.439 847.245 581.598C839.786 569.96 833.25 561.773 825.318 550.901C822.354 547.55 819.886 545.085 816.655 541.968Z"/><path fill="#F7F7F5" d="M816.655 541.968C823.397 517.034 834.168 491.285 848.726 469.894C851.635 465.62 863.296 449.937 869.028 451.855C869.451 453.639 869.018 453.774 868.33 455.858C864.761 457.35 853.307 476.631 850.891 480.933C839.931 500.444 833.096 522.267 827.339 543.788C826.768 545.925 826.147 548.904 825.318 550.901C822.354 547.55 819.886 545.085 816.655 541.968Z"/><path fill="#6EBDB8" d="M956.347 695.706C958.635 695.373 962.759 695.481 965.236 695.475C950.987 723.095 926.82 749.816 899.234 764.302L892.576 767.31C901.126 743.357 906.598 727.209 919.579 705.159C923.046 704.382 928.908 701.763 932.614 700.477C941.085 697.538 947.579 696.577 956.347 695.706Z"/><path fill="#6EBDB8" d="M903.778 665.737C906.711 669.388 907.789 671.719 909.387 675.991C911.466 683.402 913.733 690.852 915.887 698.253C903.658 721.873 893.003 742.527 886.022 768.619C883.896 765.202 883.131 763.618 882.214 759.533C872.958 728.352 883.729 690.537 903.778 665.737Z"/><path fill="#F7F7F5" d="M903.778 665.737C906.711 669.388 907.789 671.719 909.387 675.991C900.68 691.115 892.801 705.027 888.024 721.964C884.652 733.92 883.315 745.578 882.877 757.999C882.855 758.467 882.432 759.151 882.214 759.533C872.958 728.352 883.729 690.537 903.778 665.737Z"/><path fill="#6EBDB8" d="M984.724 622.849L985.411 623.756C986.925 642.658 976.117 673.021 967.984 690.003C954.515 687.978 937.238 691.562 924.813 697.029L924.32 696.856C924.84 695.308 928.303 690.275 929.419 688.514C943.802 665.805 965.125 641.371 984.724 622.849Z"/><path fill="#6EBDB8" d="M969.492 618.864C972.277 618.13 977.797 616.679 980.294 618.148C979.758 619.95 964.271 635.347 961.858 637.895C948.252 652.259 928.739 674.533 920.097 692.233C918.575 684.594 917.137 677.894 913.727 670.759C911.901 667.486 909.617 664.428 907.436 661.372C922.877 642.989 946.198 624.936 969.492 618.864Z"/><path fill="#F7F7F5" d="M969.492 618.864C966.581 621.991 953.617 629.577 948.548 633.661C938.353 641.876 930.533 648.729 922.171 659.258C919.371 662.784 916.275 667.654 913.727 670.759C911.901 667.486 909.617 664.428 907.436 661.372C922.877 642.989 946.198 624.936 969.492 618.864Z"/><path fill="#6EBDB8" d="M778.969 719.864C790.413 718.989 797.497 718.832 809.017 719.947C813.765 727.692 826.61 753.941 828.02 762.235C827.132 763.353 825.463 763.394 824.019 763.511C794.319 764.39 780.268 745.625 768.419 721.218L778.969 719.864Z"/><path fill="#F7F7F5" d="M768.419 721.218L778.969 719.864C786.696 733.422 797.718 747.657 810.98 755.938C813.924 757.776 822.191 761.799 824.019 763.511C794.319 764.39 780.268 745.625 768.419 721.218Z"/><path fill="#6EBDB8" d="M896.151 637.468C896.554 637.673 896.285 637.501 896.753 638.211C895.91 641.09 891.378 650.117 889.829 653.415C881.888 670.319 874.34 687.827 862.997 702.792C861.349 704.965 854.745 713.396 852.287 713.729C850.485 699.447 850.173 680.817 849.856 666.363C862.745 653.019 879.154 644.339 896.151 637.468Z"/><path fill="#F0F4EF" d="M846.778 724.6L848.283 724.406C849.98 726.133 853.754 748.955 854.402 752.461C858.429 774.229 860.154 796.457 861.233 818.543L850.375 818.528C849.506 818.527 849.605 818.461 848.739 818.184C845.812 797.913 842.929 784.253 837.148 764.317C841.251 750.141 842.148 740.348 840.665 725.939L846.778 724.6Z"/><path fill="#6EBDB8" d="M753.434 665.504C756.115 667.39 758.872 669.151 761.175 671.461C778.53 683.995 792.136 696.274 805.002 713.629C794.338 712.812 787.605 712.794 776.79 714.201C772.742 714.885 770.108 715.426 766.16 716.504C759.764 701.907 753.341 681.351 753.434 665.504Z"/><path fill="#F7F7F5" d="M753.434 665.504C756.115 667.39 758.872 669.151 761.175 671.461C763.765 683.665 770.989 703.133 776.79 714.201C772.742 714.885 770.108 715.426 766.16 716.504C759.764 701.907 753.341 681.351 753.434 665.504Z"/><path fill="#6EBDB8" d="M795.641 676.369C806.605 681.198 817.603 692.122 824.646 701.733C836.003 717.231 836.767 735.899 833.652 754.39L833.436 754.92L832.856 755.107C821.756 729.987 819.921 721.783 801.658 698.836C801.025 691.237 798.311 683.463 795.641 676.369Z"/><path fill="#6EBDB8" d="M874.553 457.309C879.177 463.467 885.979 499.566 887.409 508.483C879.272 513.44 873.881 517.694 867.008 524.198C864.631 526.51 862.396 529.191 860.208 531.696C860.881 522.612 864.706 504.949 866.445 495.582C868.282 485.684 871.506 466.42 874.553 457.309Z"/><path fill="#6EBDB8" d="M758.116 661.933C766.812 661.736 781.242 668.159 788.666 672.528C789.723 677.679 792.976 686.69 794.667 692.119C792.318 690.435 786.422 683.651 783.693 681.276C775.679 674.3 767.08 667.613 758.116 661.933Z"/><path fill="#3F9EA1" d="M175.016 122.695C214.779 119.778 224.951 163.715 228.196 194.591C245.671 174.437 275.131 178.973 288.866 200.287C294.363 208.818 296.194 216.531 298.8 226.168C318.448 209.14 331.558 221.605 335.068 243.245C335.618 246.634 337.313 261.712 334.619 264.194C333.289 265.42 318.383 265.049 315.642 265.058L285.717 265.104L197.75 265.032L77.6069 264.981C74.1342 264.98 38.3863 265.325 37.6019 264.653C29.0272 257.307 33.5313 225.285 47.6522 222.799C53.3789 221.791 55.4891 222.612 60.4571 225.307C60.4165 222.444 60.3426 219.608 60.5418 216.75C62.9104 182.756 92.4163 165.755 116.399 196.114C119.952 161.066 136.425 127.131 175.016 122.695Z"/><path fill="#F7F7F5" d="M177.031 127.704C226.285 128.414 219.559 198.326 224.974 203.318C226.976 203.303 229.213 200.823 230.422 199.459C253.62 173.275 285.34 189.938 292.226 220.285C292.875 223.145 294.2 230.447 295.288 232.734C295.907 233.093 297.714 233.961 298.256 233.426C323.107 208.868 330.737 232.936 330.872 259.951L191.42 260.158L39.825 259.986C37.4658 251.49 37.7633 233.014 47.7351 228.042C54.1233 224.857 58.5551 232.451 63.7826 234.721C65.6649 234.4 64.899 234.798 66.2484 233.67C66.8353 230.644 65.9013 226.56 65.7683 223.218C65.4525 212.918 67.1564 200.23 74.4111 192.374C86.2841 179.739 102.564 185.433 111.477 197.952C113.24 200.428 116.096 206.125 119.001 205.953C121.171 203.936 121.203 195.855 121.602 192.515C125.358 161.081 142.433 130.242 177.031 127.704Z"/><path fill="#3F9EA1" d="M871.737 41.301C917.965 40.4949 956.138 77.2278 957.11 123.452C958.082 169.677 921.486 207.982 875.265 209.119C828.809 210.262 790.268 173.44 789.291 126.98C788.314 80.5208 825.275 42.1112 871.737 41.301Z"/><path fill="#F7F7F5" d="M865.499 46.9326C908.8 42.6365 947.37 74.295 951.597 117.603C955.824 160.911 924.104 199.43 880.789 203.588C837.572 207.736 799.159 176.103 794.941 132.893C790.724 89.6825 822.296 51.219 865.499 46.9326Z"/><path fill="#3F9EA1" d="M867.494 58.1344C904.509 54.9391 937.148 82.2524 940.528 119.25C943.908 156.248 916.758 189.024 879.778 192.589C842.535 196.179 809.477 168.794 806.073 131.534C802.669 94.2738 830.218 61.3523 867.494 58.1344Z"/><path fill="#F0F4EF" d="M871.476 63.0368C905.797 62.0389 934.478 88.9555 935.657 123.272C936.836 157.588 910.072 186.41 875.763 187.771C841.196 189.142 812.11 162.132 810.922 127.558C809.733 92.9848 836.896 64.0422 871.476 63.0368Z"/><path fill="#3F9EA1" d="M873.26 77.0985C875.714 76.7105 877.08 76.3193 879.108 78.0497C880.42 80.3283 879.687 113.059 879.645 118.276C886.509 116.199 912.092 104.704 916.638 109.811C917.824 115.822 908.501 117.251 903.877 118.761C897.078 120.923 889.751 123.793 882.922 126.186C881.679 129.452 880.68 132.096 877.436 133.904C870.475 137.784 862.296 131.065 864.913 123.487C866.026 120.265 867.91 118.536 870.889 116.948C871.042 107.44 870.808 88.4615 871.882 78.5046C872.341 78.0359 872.8 77.5672 873.26 77.0985Z"/><path fill="#F7F7F5" d="M871.408 121.509C873.997 120.438 876.97 121.607 878.135 124.155C879.301 126.703 878.242 129.717 875.738 130.975C874.035 131.831 872 131.688 870.433 130.602C868.866 129.516 868.018 127.661 868.221 125.766C868.424 123.871 869.647 122.238 871.408 121.509Z"/><path fill="#3F9EA1" d="M872.75 123.227C873.968 122.954 875.236 123.383 876.037 124.339C876.838 125.295 877.038 126.619 876.555 127.77C876.072 128.92 874.988 129.704 873.744 129.803C872 129.941 870.446 128.707 870.185 126.978C869.924 125.248 871.044 123.611 872.75 123.227Z"/><path fill="#F0F4EF" d="M874.872 81.2367C875.367 81.6117 875.575 81.7225 875.622 82.0542C876.404 87.6278 876.432 113.481 875.56 117.24C875.284 117.027 874.899 116.522 874.653 116.232C874.273 111.83 874.162 84.7717 874.872 81.2367Z"/><path fill="#F0F4EF" d="M910.774 111.582L911.693 111.618C910.701 112.973 886.289 120.928 882.625 122.158C881.789 122.345 882.244 122.371 881.298 121.832C882.851 119.514 906.529 112.751 910.774 111.582Z"/></svg>