<?xml version="1.0" encoding="utf-8" ?><svg xmlns="http://www.w3.org/2000/svg" xmlns:xlink="http://www.w3.org/1999/xlink" width="1024" height="1024" viewBox="0 0 1024 1024"><path fill="white" d="M0 0L1024 0L1024 1024L0 1024L0 0Z"/><path fill="#383838" d="M817.601 39.5373C823.616 40.4077 837.038 43.6065 842.139 46.2858C848.461 49.6065 851.444 65.686 853.379 73.0805C863.281 68.9707 873.97 64.7574 883.984 60.9489C889.333 64.1317 890.908 63.0232 895.318 64.2483C900.645 66.5527 909.747 74.1665 913.545 78.33C920.34 85.7802 908.713 108.029 914.449 114.497C916.737 115.84 922.275 114.899 924.982 114.517C931.742 113.563 937.455 113.281 944.309 113.553C950.384 117.262 956.784 128.619 958.739 135.366C960.662 142.003 953.375 147.844 949.527 152.248C947.049 155.085 944.872 157.777 942.708 160.94C943.282 163.556 943.758 164.908 944.647 167.399C961.172 174.561 974.461 171.992 976.312 193.468C978.128 214.538 966.08 212.098 948.194 217.295C947.91 220.097 947.439 222.653 946.95 225.415C952.977 234.362 963.669 244.751 967.925 253.448C965.556 269.908 951.748 278.679 935.852 277.461C931.589 277.135 920.73 274.398 917.208 275.352C915.794 279.695 926.731 301.981 922.424 307.49C913.455 315.762 895.839 319.285 884.672 323.716C874.696 327.674 868.18 313.668 861.29 308.669C858.185 306.417 856.043 304.94 852.675 302.991C850.803 307.526 848.585 313.41 845.134 316.952C842.554 319.6 810.828 326.725 805.84 326.476C803.324 326.35 801.526 323.598 799.978 321.84L791.812 327.635C793.946 331.897 798.922 337.45 802.784 340.246C815.812 339.89 829.867 337.404 843.051 336.615C855.221 335.886 867.786 332.287 875.844 345.026C880.13 351.802 882.9 358.899 886.623 365.946C891.442 375.387 900.299 387.151 895.583 398.339C892.081 405.477 883.954 412.223 878.533 418.172C870.903 426.545 862.357 434.479 855.166 443.266C858.9 453.251 863.938 469.82 867.865 478.641C881.047 483.586 894.695 487.871 908.04 492.405C913.898 494.395 920.517 496.044 925.977 498.991C928.825 500.529 932.008 502.711 933.482 505.699C937.11 513.049 941.324 553.994 938.714 561.942C937.581 565.392 935.289 568.221 932.267 570.211C925.699 574.537 898.736 581.048 890.297 583.223C885.425 584.479 879.923 585.422 875.466 587.828C875.308 587.913 875.154 588.003 874.998 588.091C874.144 592.153 873.78 598.667 873.129 603.053C872.16 609.586 871.143 616.156 870.257 622.696C879.194 633.732 920.4 666.89 923.118 675.389C923.978 678.078 923.915 680.883 923.458 683.64C922.658 688.467 920.619 693.225 919.291 697.939C916.883 706.482 915.309 716.997 911.127 724.852C909.123 728.616 906.689 730.48 902.84 732.289C895.516 735.731 886.88 737.023 879.067 739.186C858.486 744.882 837.648 749.941 817.295 756.397C822.282 765.013 848.225 807.516 849.303 814.059C850.229 819.684 848.945 825.036 845.716 829.698C842.626 834.158 816.017 862.959 812.359 865.113C804.798 869.564 725.379 883.04 710.463 885.774C710.524 900.569 711.942 917.428 710.076 932.142C709.319 938.111 704.853 944.225 699.853 947.432C697.516 948.931 692.56 950.127 689.681 950.735C671.922 954.483 653.862 957.101 636.045 960.442L599.111 967.178C589.183 969.014 567.587 975.432 560.918 966.855C549.511 952.185 540.705 932.198 531.152 916.183C525.922 927.066 519.465 937.703 514.053 948.343C506.378 963.433 503.16 965.862 486.77 969.544L436.992 980.473C432.519 981.461 412.217 986.242 410.193 985.732C402.03 983.675 364.857 972.322 359.535 968.956C357.046 964.802 351.438 945.245 349.804 939.766L335.248 890.629C334.731 888.944 333.987 885.39 333.55 883.565C320.793 883.478 307.358 887.649 294.802 890.237C271.645 895.01 248.355 901.297 225.159 905.658C224.655 905.39 224.151 905.123 223.647 904.856C204.537 892.185 185.996 878.31 167.604 864.629C163.333 861.605 159.929 853.061 161.95 847.997C169.968 827.905 180.062 808.345 189.18 788.713C191.925 782.802 194.758 776.365 198.001 770.848C190.432 758.005 176.996 740.456 168.134 727.435C146.956 728.007 122.883 731.977 101.4 733.339C92.2922 733.81 82.7286 735.906 73.6748 734.677C67.8794 733.89 64.6181 727.427 63.2511 722.385C60.1453 710.929 57.5446 699.329 54.606 687.819C52.263 678.642 49.9255 669.411 47.7844 660.19C46.5366 655.449 48.1273 648.427 52.7074 645.789C77.6908 631.398 103.07 617.399 127.865 602.655C128.622 593.643 128.507 575.222 128.374 565.966L70.0974 523.898C61.7449 517.874 53.1564 512.109 44.8711 506.059C42.107 504.3 40.2801 499.964 40.3018 496.782C40.3639 487.64 43.8619 478.71 45.4383 469.654C46.8978 462.654 48.2782 455.691 50.0678 448.772C52.753 438.392 65.949 435.23 75.0963 431.033L111.038 414.405C114.648 412.744 124.634 406.816 127.387 406.127C133.851 404.507 146.446 404.478 153.353 404.199L127.343 374.944C120.462 367.357 106.692 354.489 102.386 345.796C100.712 342.416 100.643 336.987 102.097 333.512C103.633 329.837 133.198 291.404 136.202 288.985C140.2 285.767 145.186 283.467 149.656 280.954L171.623 268.553L193.703 255.92C198.963 252.855 210.344 245.614 215.835 245.148C225.44 244.333 243.559 252.534 252.054 255.946C248.674 246.446 241.999 229.352 240.864 219.792C240.223 214.397 241.258 209.543 244.718 205.271C250.766 197.804 337.489 149.132 350.821 143.305C353.062 142.325 355.297 141.66 357.741 141.449C361.452 141.13 365.213 141.747 368.613 143.269C378.316 147.614 399.286 165.826 408.259 173.321L437.454 157.717L469.061 141.138C477.691 136.602 493.155 126.989 502.169 125.352C511.111 123.727 521.524 125.213 530.523 125.851C538.939 126.447 547.858 126.69 555.95 129.215C559.786 130.412 562.754 132.157 565.204 135.391C569.309 140.809 570.961 148.213 573.005 154.589C576.119 164.299 579.401 173.957 582.701 183.607C584.494 188.852 586.038 194.749 588.701 199.605C590.81 203.45 593.587 204.716 597.69 205.812C602.179 207.012 617.204 211.36 620.943 210.938C627.984 210.143 661.043 180.747 671.058 175.186C676.653 172.08 680.8 173.099 686.648 174.734C683.206 170.174 670.643 155.966 671.305 151.315C673.625 135.014 695.312 122.64 708.985 116.523C711.663 115.325 721.383 115.763 723.974 115.809C719.513 109.082 710.461 93.8774 708.768 86.4015C709.485 83.568 711.489 77.9069 714.074 76.6172C724.525 71.4032 740.617 58.5745 751.079 55.1219C754.145 55.254 754.353 56.6921 757.124 57.2308C765.459 58.8513 771.742 63.5092 778.736 68.111C781.164 60.0666 782.897 56.2423 790.688 52.1142C799.248 47.5788 808.243 42.1775 817.601 39.5373Z"/><path fill="white" d="M507.294 137.204C515.136 135.367 543.131 138.19 551.529 140.733C557.195 142.449 558.799 151.874 560.743 157.823L569.977 185.305C578.555 210.245 581.038 214.951 607.826 221.181C614.203 222.664 622.533 226.001 628.944 221.865C646.4 210.602 661.442 195.312 679.447 184.83C679.628 184.752 679.809 184.674 679.99 184.595C688.606 188.15 713.566 200.782 718.309 207.806C719.341 221.868 710.226 264.346 712.749 272.026C714.625 277.736 738.223 295.013 744.122 297.827C754.481 294.101 766.275 291.165 775.135 284.851L786.546 287.229C788.335 296.192 790.918 302.947 794.031 311.542C789.459 314.773 782.303 318.651 779.537 323.596C778.425 325.584 778.248 327.829 778.961 329.987C780.174 333.658 783.756 337.212 786.213 340.194C788.951 343.517 792.226 348.456 796.107 350.373C808.651 356.569 854.159 343.892 863.201 348.988C863.998 349.438 864.611 349.971 865.177 350.694C868.142 354.476 883.083 383.901 884.27 388.407C884.856 390.631 884.436 392.657 883.338 394.65C881.152 398.622 877.4 401.939 874.276 405.182C867.946 411.754 848.52 430.307 845.04 436.887C840.69 445.113 846.414 454.433 849.274 462.245C850.77 466.332 851.825 470.575 853.118 474.729C854.542 479.301 856.006 484.458 859.785 487.695C866.893 493.786 908.679 503.619 921.369 510.419L921.995 510.759C925.643 520.027 926.341 546.345 927.012 557.164C927.236 560.785 912.018 564.081 908.294 565.15L882.086 572.913C861.842 579.015 862.775 581.044 860.649 602.273C859.82 610.545 854.921 625.712 861.794 632.308C872.693 642.769 883.828 653.256 894.895 663.562C900.393 668.716 907.513 673.604 911.586 679.812C910.291 685.093 901.442 715.321 899.571 718.319C897.999 720.838 895.042 721.976 892.231 722.438C883.272 723.908 856.306 719.908 845.691 718.857C840.749 718.368 835.207 717.425 830.313 718.548C828.517 718.959 826.662 719.691 825.292 720.958C821.216 724.728 810.326 743.623 807.083 749.201C805.498 751.927 804.537 755.087 805.134 758.245C806.27 764.257 825.926 795.77 830.273 803.186C832.626 807.202 836.024 811.863 837.072 816.416C837.588 818.656 837.102 820.134 835.821 821.991C834.056 824.55 807.367 854.104 805.903 854.715C793.401 859.927 754.722 823.197 734.486 827.318C726.22 829.002 706.577 838.949 702.329 846.046C692.357 862.709 703.052 924.018 695.699 934.321C694.469 936.045 692.761 936.923 690.805 937.625C685.467 939.539 679.469 940.25 673.899 941.253L644.585 946.347C631.474 928.064 619.499 908.792 606.694 890.378C597.088 877.252 582.084 881.563 568.738 881.885C550.231 882.333 536.014 880.128 526.14 899.198C520.599 909.898 514.676 921.304 508.714 931.812C505.362 938.025 501.323 947.212 496.78 952.414C495.379 954.018 491.299 954.681 489.142 954.293C474.486 951.631 459.568 947.436 445.199 943.523C436.953 940.935 435.078 930.012 434.018 922.719C432.328 911.09 429.89 899.862 427.845 888.374C425.112 872.505 424.664 857.705 407.577 850.356C403.675 848.677 393.591 843.764 390.013 841.344C372.156 829.269 363.917 837.528 347.932 847.995L321.122 865.457C312.083 871.319 306.806 876.253 295.574 875.408C290.01 870.823 283.901 864.496 278.689 859.46L251.553 833.324C256.603 820.963 283.681 768.969 283.538 760.57C283.482 757.283 282.39 753.983 280.619 751.228C277.843 746.911 273.872 742.995 270.528 739.097C266.01 733.829 261.737 728.372 257.702 722.724C252.648 715.648 246.423 702.299 240.394 696.873C238.243 694.936 235.829 693.693 232.931 693.408C225.129 692.639 216.098 694.677 208.253 695.505C189.06 697.531 169.542 700.185 150.283 701.176C144.623 680.33 137.442 659.39 131.539 638.45C146.257 627.288 163.685 618.304 178.976 607.862C187.471 602.06 205.043 595.251 204.551 583.312C203.595 573.8 202.158 564.398 200.409 554.837C198.671 545.33 201.205 521.842 194.221 515.597C187.428 509.706 178.272 506.211 170.743 501.499C154.619 491.409 135.291 482.545 119.897 471.84L119.197 471.348C123.412 455.921 127.511 433.678 131.107 417.493C143.805 417.352 156.541 416.161 169.239 415.692C181.188 415.251 193.708 415.664 205.555 414.247C208.279 413.921 211.692 413.327 213.982 411.78C217.579 409.352 230.411 379.717 231.574 374.434C232.38 370.774 231.342 367.702 229.669 364.438C226.058 357.392 220.053 351.073 215.089 344.947L192.27 316.285C188.215 311.203 181.421 303.172 177.994 297.949L177.648 297.411C182.162 291.439 211.977 259.963 217.524 256.784C233.374 260.664 253.229 269.823 268.824 276.128C287.36 283.621 291.736 291.429 310.939 276.112C320.295 268.649 338.497 262.706 337.71 247.407C333.055 223.125 323.848 198.13 318.454 173.835C328.349 169.121 338.57 163.548 348.311 158.472C362.67 150.989 361.874 152.451 374.164 161.83C389.509 173.541 403.635 185.684 417.206 199.468C420.983 202.953 426.492 210.445 431.723 211.667C440.652 213.752 453.352 212.237 462.213 210.769C470.037 209.147 481.042 207.532 484.777 199.414C486.942 194.803 488.224 189.573 489.233 184.57C492.358 169.062 496.005 153.776 499.837 138.426C503.08 137.58 503.948 137.443 507.294 137.204Z"/><path fill="#383838" d="M513.284 229.727C513.607 229.715 513.929 229.703 514.251 229.691C597.695 227.739 678.912 261.85 739.23 318.88C750.332 329.889 761.456 341.417 771.098 353.697C857.671 463.955 869.092 618.671 786.023 734.56C731.326 810.869 649.733 852.583 555.625 853.771L554.662 853.81C535.889 854.438 516.829 851.77 498.395 848.505C434.575 837.2 379.034 806.453 331.686 762.369C267.167 702.145 230.423 621.633 226.363 533.968C219.411 383.859 327.326 254.06 475.452 232.545C488.144 230.701 500.431 230.178 513.284 229.727Z"/><path fill="white" d="M503.479 238.784C503.659 238.77 503.839 238.756 504.02 238.741C710.157 227.073 875.847 432.072 823.88 631.082C791.424 755.373 694.448 833.296 568.328 841.773C567.683 841.853 566.951 841.971 566.311 841.994C487.7 844.744 416.273 818.289 356.384 767.63C286.5 708.517 247.363 635.279 239.314 544.187C226.132 394.996 331.63 260.221 480.739 241.005C488.305 240.021 495.856 239.441 503.479 238.784Z"/><path fill="#383838" d="M506.674 263.271C757.854 249.554 907.719 558.45 734.465 741.296C700.421 777.223 652.58 801.342 604.268 810.162C593.036 812.213 580.276 814.452 568.875 814.568C448.339 822.458 330.296 736.548 287.726 625.626C251.467 531.15 265.834 421.295 334.865 345.219C378.07 297.604 442.053 266.132 506.674 263.271Z"/><path fill="white" d="M476.263 288.709C544.083 286.225 612.033 312.048 662.839 356.439C718.605 405.164 753.466 474.134 758.044 548.153C762.562 621.191 735.393 690.787 687.547 745.465C678.408 755.909 656.644 778.176 644.84 785.086C624.27 797.128 586.156 801.679 562.653 803.289L562.037 803.327C551.672 803.895 541.034 803.133 530.739 802.084C474.869 796.395 420.744 770.801 378.92 733.769C320.754 682.268 285.003 612.858 281.135 534.937C277.869 469.15 298.744 403.837 343.126 354.547C363.349 332.087 385.933 314.445 413.193 301.322C418.117 298.952 426.78 294.757 431.81 293.623C445.983 290.429 461.812 289.545 476.263 288.709Z"/><path fill="#383838" d="M733.019 477.946C735.968 478.662 739.925 482.939 737.641 484.852C701.956 514.746 671.236 547.287 642.553 584.298C650.675 634.443 661.959 684.598 670.438 734.72C671.075 738.485 671.511 742.766 666.894 743.787C658.742 745.591 650.363 746.703 642.109 748.043L595.921 755.995C554.642 763.169 513.364 770.396 472.204 778.217C470.15 778.607 468.976 778.1 467.196 777.154C464.952 775.166 464.034 774.543 463.372 771.639C461.289 762.513 459.78 753.081 458.268 743.848L450.558 696.315L438.974 627.369C437.054 615.705 435.052 604.011 433.414 592.301C432.773 587.378 436.038 585.069 440.34 584.175C456.101 580.901 471.923 578.665 487.84 576.33C507.377 573.464 526.889 570.224 546.377 567.01L601.999 557.938C611.21 556.364 620.644 554.141 629.884 552.993C632.567 552.66 634.626 553.846 636.838 555.197C647.642 544.68 665.7 530.181 677.516 520.524C694.321 506.791 715.044 490.337 733.019 477.946Z"/><path fill="white" d="M629.393 560.221L629.943 560.214L630.269 560.649C628.96 562.559 626.66 564.383 624.908 565.94C600.627 587.505 578.902 611.727 557.527 636.116C551.148 643.394 545.567 651.685 538.833 658.641C527.231 647.761 508.481 627.091 491.446 628.301C476.811 629.341 465.371 643.075 467.18 657.778C468.57 669.065 476.075 675.334 483.205 683.334L505.824 708.352C516.258 719.819 523.103 733.634 540.763 730.802C556.136 728.722 561.118 715.571 567.391 703.138C587.237 663.802 610.7 627.573 636.671 591.912L646.354 645.082C651.732 675.634 658.108 706.492 663.438 737.086C656.081 738.647 646.678 739.697 638.895 741.1L557.373 755.401C537.828 758.826 518.267 762.485 498.765 766.153C489.297 767.934 479.926 770.466 470.452 772.062C468.949 767.619 467.372 755.319 466.548 750.249L458.438 698.694C452.841 663.08 445.229 626.175 440.425 590.699C451.692 588.569 466.875 586.833 478.65 584.974L562.604 571.516C581.908 568.472 601.043 565.014 620.258 561.464C623.28 560.906 626.333 560.511 629.393 560.221Z"/><path fill="#57BEAF" d="M694.958 515.111C695.299 513.849 656.527 556.952 653.298 560.873C631.591 587.235 611.839 614.642 593.678 643.627C585.485 656.702 578.072 670.272 570.168 683.519C563.043 694.739 559.118 709.46 550.186 719.242C543.519 726.543 530.221 726.977 523.615 719.249C511.908 705.552 499.983 692.165 487.893 678.802C482.129 672.329 475.095 665.627 473.442 656.855C471.629 647.228 480.578 635.702 490.165 635.017C508.395 633.715 525.876 657.341 538.718 667.349L539.265 667.77C543.517 664.22 552.608 652.164 556.69 647.407C563.931 638.626 571.827 630.292 579.315 621.744C601.899 595.962 626.248 572.496 652.214 550.119C666.136 538.122 679.902 525.801 694.958 515.111Z"/><path fill="#383838" d="M583.222 338.669C588.554 338.036 593.643 338.775 595.003 344.916C596.367 351.067 597.493 357.299 598.68 363.489L606.814 406.54C613.962 443.689 622.672 482.671 628.957 519.697C627.285 524.17 626.204 526.606 621.271 527.685C613.773 529.326 606.142 530.44 598.565 531.7L562.867 537.984C522.458 545.194 480.075 553.048 439.591 559.42C434.527 559.917 427.263 560.437 425.573 553.638C423.727 546.216 422.487 538.245 421.036 530.684L411.351 478.606C405.442 445.311 398.896 412.061 393.003 378.767C392.23 374.398 391.859 371.962 394.468 368.411C400.914 365.053 430.585 361.781 439.494 360.457L496.804 351.895L583.222 338.669Z"/><path fill="white" d="M586.363 345.715L587.46 345.757C588.974 347.208 592.347 368.37 593.115 372.197L614.07 480.84C615.99 491.072 618.142 501.254 620.287 511.44C620.906 514.379 621.466 517.299 621.619 520.305C616.076 521.955 607.039 523.188 601.052 524.195L567.448 529.964L434.644 553.316C434.449 553.325 433.43 553.136 433.198 553.097C431.19 550.298 424.047 507.339 422.881 501.013L409.415 428.708C406.731 413.719 403.613 398.832 400.935 383.843C400.291 380.24 399.661 376.917 399.311 373.262C453.16 366.329 506.766 357.759 560.432 349.574C569.041 348.261 577.715 346.692 586.363 345.715Z"/><path fill="#383838" d="M560.057 372.691C561.488 372.425 561.398 372.38 562.777 372.795C564.43 375.159 569.045 402.841 568.872 406.324C566.584 410.777 557.421 411.426 553.171 410.279C550.336 409.514 548.765 401.546 547.639 398.496C538.734 399.015 529.153 400.309 520.159 401.168C521.98 408.702 523.68 421.709 525.042 429.668C528.806 451.655 531.98 473.49 536.138 495.448C542.016 495.452 552.928 493.355 556.628 496.811C558.796 498.835 559.458 502.288 559.459 505.062C559.46 506.468 558.873 509.041 557.786 509.472C549.873 512.61 498.173 522.318 492.495 521.897C489.068 519.909 486.511 512.891 487.87 509.08C488.539 507.204 492.352 506.118 494.188 505.439C498.057 504.301 500.549 503.391 504.299 501.871C504.012 495.432 500.461 472.486 499.285 465.785C495.88 446.383 493.431 422.991 489.276 404.065C480.678 405.249 469.491 407.093 461.056 408.838C460.164 417.655 462.973 424.282 450.966 424.467C448.926 424.498 445.126 426.051 444.4 422.912C443.368 418.448 438.317 396.086 439.493 393.244C440.657 392.289 442.726 391.745 444.21 391.527C482.692 385.875 521.596 377.986 560.057 372.691Z"/><path fill="#57BEAF" d="M555.998 379.688L557.217 379.57C558.912 381.122 562.168 400.51 562.871 403.982L556.067 405.184C554.799 401.728 554.614 395.339 551.273 393.218C547.601 390.885 519.833 394.992 513.834 395.809C514.093 400.579 515.47 407.861 516.272 412.773L520.617 439.665C522.422 451.047 527.277 486.714 531.613 500.107C532.717 503.519 550.175 499.258 552.786 501.766C553.709 502.653 553.323 502.448 553.539 503.799C550.854 506.123 523.141 510.212 517.796 511.545C514.44 512.382 497.95 515.667 495.455 515.51C493.934 514.185 494.39 514.969 493.853 513.195C495.247 510.683 504.997 508.721 509.915 505.636C512.803 500.253 495.722 411.72 494.841 397.208C486.338 398.26 464.963 400.957 456.801 404.384C454.354 405.411 454.883 414.711 454.938 417.735L449.179 419.017C447.76 413.125 446.797 404.388 445.41 397.726C453.599 395.951 466.52 394.511 475.252 393.048L555.998 379.688Z"/><path fill="white" d="M510.129 274.699C525.405 273.07 549.861 275.846 564.98 278.289C638.922 290.35 699.636 331.1 743.105 391.47C821.345 500.131 814.703 657.173 710.621 746.698C703.925 752.457 696.93 757.444 689.73 762.582L682.916 767.713C686.748 763.2 691.725 758.965 695.744 754.482C738.531 706.756 765.444 648.215 770.249 583.967C775.03 520.054 756.943 456.233 720.45 403.521C714.449 394.855 708.597 385.873 701.569 377.972C657.393 327.217 599.937 292.278 533.316 280.82C518.435 278.261 506.175 277.648 491.229 276.672C497.281 275.612 503.968 275.214 510.129 274.699Z"/><path fill="white" d="M818.954 48.6034C827.18 49.1588 830.807 49.9186 838.697 52.4007C842.896 58.9337 844.71 69.7093 847.869 77.2713C850.431 83.4055 859.231 84.4436 866.391 87.0237C872.287 82.7559 886.819 74.1099 893.477 70.7438C896.853 74.1281 906.187 79.9265 907.701 82.4605C909.991 86.2914 904.966 107.736 903.806 112.293L910.899 122.358C919.237 122.528 932.781 120.651 941.996 120.288C946.663 125.179 949.512 131.452 952.495 137.459C946.793 144.633 940.715 150.986 935.387 158.477C936.797 163.43 937.311 167.786 939.025 172.863C958.512 180.411 972.895 177.955 968.849 203.895C961.789 206.511 949.797 209.426 942.225 211.51C941.217 215.182 940.362 223.587 939.373 228.273C944.84 235.741 954.69 246.93 960.767 254.26C959.232 259.095 956.776 262.464 953.242 265.957C943.341 262.946 934.084 260.175 923.913 258.119C919.032 263.486 912.72 268.507 908.413 273.55C911.755 282.908 914.607 293.871 916.422 303.642C912.383 306.055 904.396 309.757 899.646 309.221C895.265 308.727 883.56 288.492 879.789 284.109L879.221 283.456C868.007 286.266 862.923 286.522 851.64 287.028L849.477 291.747C847.634 296.904 845.134 302.103 843.172 307.216C839.875 315.806 829.317 310.689 822.312 308.696C820.177 298.067 817.139 287.65 814.71 277.008C807.076 273.008 798.42 269.527 789.865 264.99C780.354 272.537 773.769 276.187 764.424 282.943C760.723 281.211 747.951 272.807 743.686 270.187C750.071 261.267 757.038 250.653 763.845 242.279C761.428 238.165 751.22 224.936 747.992 221.158C744.686 222.103 732.81 224.32 729.912 223.542C729.272 219.758 731.315 210.745 730.606 206.724C729.84 202.384 723.354 197.426 723.077 192.846C725.199 189.468 737.378 188.311 737.866 185.586C738.541 181.815 737.196 163.867 736.928 159.707C726.538 153.093 718.148 147.422 708.605 139.731C710.509 134.227 711.912 129.139 714.389 123.834C725.914 123.332 736.189 124.53 747.547 124.512C751.037 120.145 756.384 112.245 759.568 107.58C758.516 104.872 754.724 98.6063 753.123 95.8079C749.349 89.211 746.281 83.5953 743.23 76.5825C745.99 73.5498 752.581 68.1569 756.082 64.7388C766.022 65.7137 779.087 77.7289 789.299 82.9055C792.118 81.9693 810.615 77.7155 810.988 76.752C814.464 67.7745 814.043 57.425 818.954 48.6034Z"/><path fill="#383838" d="M822.519 86.7001C845.043 83.1797 875.905 96.6835 893.209 110.79C916.321 129.631 932.558 157.03 935.587 186.954C937.935 210.144 933.371 233.956 918.307 252.311C902.756 271.044 886.783 276.926 863.627 279.352C840.466 281.761 811.162 271.458 793.665 256.503C770.226 236.469 752.915 207.83 750.312 176.726C746.36 129.512 774.307 91.0467 822.519 86.7001Z"/><path fill="white" d="M821.535 88.6927C846.395 86.3925 872.476 97.4174 891.719 112.49C932.681 144.575 951.066 210.785 914.408 252.863C900.842 268.434 884.511 275.15 864.125 277.206C842.174 279.665 815.997 270.634 798.201 257.284C753.91 224.058 732.551 152.046 775.772 109.163C788.223 96.8099 804.231 90.9178 821.535 88.6927Z"/><path fill="#383838" d="M826.769 97.2108C826.908 97.1981 827.047 97.1855 827.187 97.1728C898.379 96.2994 956.071 185.256 908.035 244.986C896.28 259.602 877.095 266.436 859.623 267.807C837.641 269.478 812.937 258.776 796.684 244.654C782.223 232.096 771.679 216.152 765.505 198.022C749.032 149.647 772.796 100.616 826.769 97.2108Z"/><path fill="white" d="M819.274 105.643C835.687 103.431 864.302 121.971 875.62 132.971C892.877 149.74 903.514 173.098 903.674 197.307C903.788 214.499 898.357 233.442 885.981 245.916C872.175 259.65 871.88 260.493 852.514 260.549C792.51 258.22 744.176 181.83 779.569 129.11C788.63 115.613 803.595 108.369 819.274 105.643Z"/><path fill="white" d="M842.9 106.053C854.765 107.619 863.003 111.069 873.274 117.232C917.15 143.555 936.294 205.157 898.042 245.097C896.325 246.642 894.125 248.406 892.33 249.917C897.391 243.327 900.988 238.383 904.275 230.556C913.64 208.262 912.9 185.841 903.89 163.596C895.219 142.189 880.074 125.164 860.002 113.822C854.295 110.598 848.808 108.59 842.9 106.053Z"/><path fill="white" d="M234.41 710.656C234.864 710.949 241.676 720.384 242.271 721.777C245.095 728.391 268.756 755.33 270.471 759.436C271.651 762.261 260.762 784.252 258.637 788.664C252.366 801.683 246.046 816.059 239.417 828.886C233.488 831.082 225.951 832.852 219.775 834.732C206.766 838.691 193.547 842.293 180.674 846.696C178.953 847.148 177.131 847.44 175.373 847.759L212.048 769.387C210.736 766.951 209.242 764.615 207.691 762.324C198.793 749.181 189.538 736.261 180.254 723.392L234.41 710.656Z"/><path fill="white" d="M108.877 480.997C110.681 481.486 123.041 488.795 125.059 490.024C144.797 502.04 166.684 512.259 186.096 524.592C186.36 527.085 186.501 530.082 186.563 532.593C186.992 550.088 189.529 566.88 192.254 584.112C177.143 589.579 158.717 593.872 143.114 598.505C141.38 599.084 142.103 599.187 140.622 598.845C140.354 596.58 140.479 594.303 140.495 592.027C140.57 581.583 140.902 571.126 140.412 560.687C139.555 559.044 138.301 557.024 136.734 556.003C110.668 539.012 85.9232 518.084 59.9928 501.153C75.2025 495.67 93.0853 487.207 108.877 480.997Z"/><path fill="white" d="M371.623 848.023C372.967 847.936 374.367 847.819 375.686 848.15C380.985 849.479 386.037 853.511 390.9 856.002C396.413 858.826 405.983 862.053 409.816 866.817C415.806 874.261 418.938 927.614 427.87 943.659L387.105 954.033C381.411 955.527 375.14 956.732 369.299 958.182C363.178 942.534 358.306 923.382 353.073 907.198C349.896 897.371 347.458 884.819 343.002 875.567C341.762 872.992 337.413 872.214 334.743 871.568C339.475 868.149 346.407 864.08 351.504 860.811C357.353 857.06 365.688 850.957 371.623 848.023Z"/><path fill="white" d="M166.571 304.455C168.108 305.074 217.575 367.125 220.061 371.265C217.749 378.526 209.865 395.182 206.334 401.971C193.768 402.151 181.284 403.142 168.721 403.277C168.473 403.084 168.225 402.892 167.976 402.7C163.37 396.211 153.728 385.674 148.176 379.572L125.899 354.672C122.405 350.71 114.689 342.381 112.227 338.152C117.752 334.059 124.943 329.885 130.927 326.196L166.571 304.455Z"/><path fill="white" d="M306.322 181.955L307.147 182.109C308.2 184.091 309.369 189.491 310.03 191.904C314.816 209.381 319.687 226.811 324.826 244.188C326.953 249.641 324.182 253.071 319.352 256.205C311.218 261.483 301.601 269.252 292.99 273.449C288.127 272.162 282.762 269.468 278.141 267.31C274.768 265.923 270.888 264.029 267.524 262.495C264.449 254.369 252.251 221.153 253.043 214.423C256.004 210.32 298.435 186.593 306.322 181.955Z"/><path fill="white" d="M118.829 643.557L119.541 643.657C120.7 645.177 136.831 699.626 138.393 705.673C119.894 711.125 98.7212 718.113 80.1123 722.434C77.9236 722.863 78.8586 723.049 77.1091 722.388C74.3288 718.321 62.6044 666.581 60.6709 657.95C78.9028 652.783 100.124 648.285 118.829 643.557Z"/><path fill="white" d="M573.801 893.75C581.051 893.331 592.81 891.452 597.299 898.172C603.388 907.287 609.625 916.56 615.422 925.868C620.145 933.45 626.082 940.891 630.274 948.699L590.623 955.845C584.253 957.146 577.287 958.518 570.869 959.286C566.785 955.377 559.057 940.298 555.764 934.437L537.815 902.893C544.7 891.67 561.871 894.256 573.801 893.75Z"/><path fill="white" d="M239.783 842.016L241.197 841.98C244.631 843.972 250.524 849.746 253.721 852.701C263.5 861.738 272.787 871.196 282.46 880.397C267.508 884.065 243.728 889.858 227.782 892.769C227.406 892.558 227.031 892.346 226.656 892.134C224.875 890.615 222.925 889.309 221 887.979C207.539 878.679 194.616 868.6 181.124 859.349C198.06 853.15 222.023 847.231 239.783 842.016Z"/><path fill="white" d="M115.465 426.037C115.605 426.341 115.744 426.645 115.884 426.948C113.526 438.813 109.101 456.925 107.113 468.084C102.148 469.603 93.4029 473.545 88.356 475.662L55.1748 489.558L54.5487 488.759C55.2037 484.49 56.5436 480.347 57.4148 476.111C58.9604 468.597 59.9339 460.281 62.3914 453.039C62.6641 452.236 63.0623 450.998 63.7015 450.395C64.4299 449.707 110.607 428.409 115.465 426.037Z"/><path fill="white" d="M485.435 146.458C485.461 147.024 474.69 192.626 474.222 193.82C467.028 198.543 450.652 201.035 441.882 201.212C434.498 201.362 432.122 197.512 427.327 192.489C424.261 189.047 421.055 185.614 417.938 182.207C440.318 169.804 463.217 158.74 485.435 146.458Z"/><path fill="white" d="M737.382 839.027C745.565 839.425 772.153 855.313 780.99 860.162C770.334 862.699 758.703 864.636 747.871 866.631C735.681 869.104 722.876 871.912 710.662 873.936C710.478 863.464 708.784 852.464 719.631 847.287C725.541 844.467 731.271 841.427 737.382 839.027Z"/><path fill="white" d="M704.457 145.516C710.422 151.532 722.484 158.63 729.948 163.772C721.67 168.469 715.802 171.944 708.021 177.421C706.683 178.389 705.824 179.285 704.226 179.332C697.219 176.289 688.199 164.836 683.236 158.743C690.644 154.486 697.309 150.162 704.457 145.516Z"/><path fill="white" d="M735.356 82.0168C736.172 81.8654 735.688 81.8841 736.803 82.165C739.689 85.9477 748.375 102.087 751.193 107.011C748.708 110.398 746.244 113.947 743.369 116.996C740.139 117.088 737.341 116.883 734.122 116.679C733.796 116.644 732.998 116.625 732.803 116.377C728.642 111.076 719.639 94.7417 717.727 89.0781C723.462 86.9505 729.612 84.3055 735.356 82.0168Z"/><path fill="white" d="M436.613 954.601C445.899 956.62 456.435 958.611 465.479 961.04C459.255 962.979 452.881 964.066 446.511 965.506L418.112 972.091C408.227 974.799 400.79 969.299 390.359 966.271C405.166 962.044 421.627 958.017 436.613 954.601Z"/><path fill="white" d="M745.132 229.292C745.68 229.577 753.241 241.281 754.124 242.557C751.615 245.326 750.095 247.345 747.879 250.38C743.237 250.491 740.665 250.6 736.112 251.3C732.521 250.959 730.041 249.751 726.6 248.664C727.698 242.571 728.318 236.501 728.556 230.317C734.115 230.276 739.593 229.745 745.132 229.292Z"/><path fill="white" d="M807.893 284.203L808.76 284.527C810.847 292.821 813.227 301.606 815.597 309.807C813.111 310.766 804.95 314.203 802.617 313.825C799.684 307.995 794.644 293.187 793.577 286.823C797.615 285.621 803.596 284.872 807.893 284.203Z"/><path fill="white" d="M151.034 609.583L151.624 609.665L151.449 610.193C141.877 615.884 129.443 625.384 119.823 630.168C115.278 632.428 100.282 635.453 94.8219 636.903L94.2066 636.633C106.954 629.88 120.32 620.932 133.559 614.823C137.746 612.891 146.3 610.823 151.034 609.583Z"/><path fill="white" d="M875.042 291.663L876.009 291.457C878.013 292.348 882.897 301.386 884.309 303.773C879.844 305.737 876.725 306.843 872.086 308.256L869.19 305.609C864.32 301.082 859.541 298.494 854.623 294.229C860.983 293.86 868.796 292.823 875.042 291.663Z"/><path fill="white" d="M725.13 255.335C731.043 257.138 737.535 257.891 743.673 258.741C741.17 261.867 738.359 266.337 736.084 269.739C734.757 271.83 733.463 273.335 731.905 275.239C728.072 272.785 726.45 271.87 723.25 268.629C724.202 263.644 724.694 260.382 725.13 255.335Z"/><path fill="white" d="M808.927 50.9651C809.407 51.0541 809.118 50.9562 809.702 51.4536C808.143 58.1171 806.539 65.2272 804.729 71.7937C801.552 72.7283 797.083 73.6226 793.766 74.3831L793.194 74.17C792.445 70.9014 795.875 60.2659 797.112 56.8849C801.227 54.6516 804.673 52.9207 808.927 50.9651Z"/><path fill="white" d="M703.987 130.093C703.884 131.322 701.918 137.183 701.428 138.733C694.215 143.647 686.868 148.378 679.55 153.134C679.275 152.09 678.904 150.549 679.045 149.469C679.73 144.205 699.006 133.774 703.987 130.093Z"/><path fill="white" d="M729.928 172.006C730.509 173.249 730.778 179.01 730.922 180.865C727.665 182.249 714.248 187.199 711.312 187.57C710.131 186.738 710.155 186.765 709.256 185.636C710.432 182.24 726.313 173.724 729.928 172.006Z"/><path fill="white" d="M834.157 730.005C840.883 731.04 853.258 731.386 860.109 731.609C856.097 733.008 851.194 733.92 846.984 734.827C840.449 736.721 833.716 738.976 827.214 741.061C829.578 736.912 831.451 733.942 834.157 730.005Z"/><path fill="white" d="M925.109 266.296C931.041 267.06 940.332 269.564 946.183 271.204L946.248 271.892L943.33 273.18C937.082 275.173 927.66 272.313 921.459 270.444C922.583 268.991 923.864 267.651 925.109 266.296Z"/><path fill="white" d="M740.824 276.553C741.838 276.506 752.195 283.488 753.873 284.605L753.623 285.174L750.581 286.292C749.82 286.391 747.197 286.76 746.676 286.471C743.277 284.589 739.486 281.95 737.309 278.863L737.498 278.255L740.824 276.553Z"/><path fill="white" d="M887.246 309.061C888.524 309.307 891.096 312.007 892.135 313.003C888.328 314.81 885.213 315.818 881.197 317.172C878.957 315.769 877.413 314.198 875.477 312.413C879.173 311.215 883.466 310.119 887.246 309.061Z"/><path fill="white" d="M179.58 710.757L180.19 710.738C176.656 714.843 151.736 715.992 144.975 716.575L144.242 716.318C151.811 712.595 170.544 711.624 179.58 710.757Z"/><path fill="white" d="M789.432 273.86C790.774 273.946 796.945 276.812 799.707 277.621L792.703 279.738C788.808 280.757 787.32 280.2 783.517 279.196C785.404 277.424 787.497 275.602 789.432 273.86Z"/><path fill="white" d="M881.023 69.5704L881.393 70.1704C875.643 73.2683 867.36 79.3414 861.467 78.5333L860.707 78.0378C862.11 75.5818 877.509 70.7685 881.023 69.5704Z"/><path fill="white" d="M740.898 69.0205C740.989 69.2065 741.08 69.3925 741.171 69.5785C734.741 75.557 731.502 76.7399 723.178 79.929L722.801 79.6266C727.987 76.1798 735.377 72.1669 740.898 69.0205Z"/><path fill="white" d="M818.129 316.019C819.277 315.967 819.297 316.028 820.453 316.203L820.269 316.742C817.423 318.002 814.41 318.611 811.378 319.367C810.164 319.679 810.136 319.663 808.875 319.662L808.982 319.168C811.862 317.796 815.066 316.947 818.129 316.019Z"/><path fill="#605F61" d="M788.251 62.4659L788.609 62.7158C788.412 65.5353 787.422 68.4395 786.641 71.1919C786.261 71.0598 786.514 71.1854 786.128 70.5188C786.792 67.3304 787.232 65.5673 788.251 62.4659Z"/></svg>